<svg xmlns="http://www.w3.org/2000/svg" viewBox="0 0 218.42 38.22"><defs><style>.a{fill:#353535;}.b{fill:#ff6c00;}</style></defs><title>Frictionless Data</title><path class="a" d="M34.77,24.51V11h9V12.9H36.9v4h5.74v1.77H36.9v5.81Z"/><path class="a" d="M45.77,24.51V11h5.87a3.75,3.75,0,0,1,1.68.38,4.31,4.31,0,0,1,1.32,1,4.69,4.69,0,0,1,.86,1.41,4.31,4.31,0,0,1,.31,1.61,4.5,4.5,0,0,1-.19,1.31,4.59,4.59,0,0,1-.53,1.16,3.73,3.73,0,0,1-.84.92,3.46,3.46,0,0,1-1.08.58l3.17,5.13H53.94L51,19.82H47.9v4.69Zm2.13-6.57h3.72a1.72,1.72,0,0,0,.83-.2,2,2,0,0,0,.64-.55,2.8,2.8,0,0,0,.42-.81,3,3,0,0,0,.15-1,2.62,2.62,0,0,0-.18-1,2.8,2.8,0,0,0-.48-.8,2.26,2.26,0,0,0-.68-.54,1.74,1.74,0,0,0-.81-.2H47.9Z"/><path class="a" d="M58.33,24.51V11h2.13V24.51Z"/><path class="a" d="M62.64,17.67a7.07,7.07,0,0,1,.44-2.42,6.7,6.7,0,0,1,1.28-2.17,6.47,6.47,0,0,1,2.06-1.55,6.24,6.24,0,0,1,2.76-.59,5.84,5.84,0,0,1,3.15.82,5.32,5.32,0,0,1,2,2.13L72.64,15A3.83,3.83,0,0,0,72,14a3.35,3.35,0,0,0-.87-.67,3.8,3.8,0,0,0-1-.35,5,5,0,0,0-1-.1,3.88,3.88,0,0,0-1.86.43,4.14,4.14,0,0,0-1.34,1.13A5,5,0,0,0,65.08,16a5.78,5.78,0,0,0-.28,1.75,5.49,5.49,0,0,0,.32,1.88A5.09,5.09,0,0,0,66,21.2a4.41,4.41,0,0,0,1.38,1.09,3.77,3.77,0,0,0,1.75.41,4.33,4.33,0,0,0,1-.12,3.77,3.77,0,0,0,1-.4,4,4,0,0,0,.89-.69,3.45,3.45,0,0,0,.67-1l1.77,1a4.15,4.15,0,0,1-.91,1.34,5.79,5.79,0,0,1-1.33,1,6.81,6.81,0,0,1-1.57.61,6.64,6.64,0,0,1-1.62.21,5.6,5.6,0,0,1-2.6-.61,6.84,6.84,0,0,1-2-1.59,7.3,7.3,0,0,1-1.33-2.22A7.05,7.05,0,0,1,62.64,17.67Z"/><path class="a" d="M86.26,12.9H81.78V24.51H79.63V12.9h-4.5V11H86.26Z"/><path class="a" d="M88.06,24.51V11h2.13V24.51Z"/><path class="a" d="M98.84,24.6A5.92,5.92,0,0,1,96.2,24a6.59,6.59,0,0,1-2-1.54,7,7,0,0,1-1.32-2.19,7.11,7.11,0,0,1-.47-2.53,6.88,6.88,0,0,1,.49-2.58A7.16,7.16,0,0,1,94.23,13a6.48,6.48,0,0,1,2.05-1.51,6,6,0,0,1,2.59-.56,5.76,5.76,0,0,1,2.63.6,6.61,6.61,0,0,1,2,1.57,7.2,7.2,0,0,1,1.31,2.19,7,7,0,0,1,0,5.08,6.8,6.8,0,0,1-1.36,2.18,6.65,6.65,0,0,1-2.06,1.5A5.93,5.93,0,0,1,98.84,24.6Zm-4.29-6.84a5.69,5.69,0,0,0,.3,1.84,5,5,0,0,0,.86,1.58,4.24,4.24,0,0,0,1.36,1.09,3.87,3.87,0,0,0,1.79.41,3.75,3.75,0,0,0,1.82-.43A4.27,4.27,0,0,0,102,21.13a5.08,5.08,0,0,0,.84-1.58,5.77,5.77,0,0,0,0-3.64,4.93,4.93,0,0,0-.86-1.56,4.33,4.33,0,0,0-1.35-1.08,4,4,0,0,0-3.58,0,4.35,4.35,0,0,0-1.35,1.11A5,5,0,0,0,94.84,16,5.62,5.62,0,0,0,94.54,17.76Z"/><path class="a" d="M109.65,15v9.5h-2.13V11h1.67l7.71,9.73V11h2.15V24.51h-1.77Z"/><path class="a" d="M122.09,24.51V11h2.13V22.63h7.24v1.88Z"/><path class="a" d="M142.44,22.63v1.88h-9.25V11h9.08V12.9h-7v3.84h6v1.77h-6v4.12Z"/><path class="a" d="M152.34,14.19a3,3,0,0,0-.55-.45,5.57,5.57,0,0,0-.85-.45,6.16,6.16,0,0,0-1.06-.34,5.28,5.28,0,0,0-1.19-.13,3.24,3.24,0,0,0-2,.49,1.64,1.64,0,0,0-.64,1.37,1.48,1.48,0,0,0,.2.81,1.71,1.71,0,0,0,.62.55,4.78,4.78,0,0,0,1,.42l1.46.39a16.87,16.87,0,0,1,1.85.55,5.28,5.28,0,0,1,1.4.74,3,3,0,0,1,.88,1.07,3.48,3.48,0,0,1,.31,1.55,3.75,3.75,0,0,1-.39,1.77,3.32,3.32,0,0,1-1.06,1.21,4.72,4.72,0,0,1-1.57.68,8.12,8.12,0,0,1-1.92.22,9.56,9.56,0,0,1-3-.46,8.51,8.51,0,0,1-2.59-1.36l1-1.82a4.55,4.55,0,0,0,.71.55,6.51,6.51,0,0,0,1.08.56,9.44,9.44,0,0,0,1.34.44,6.13,6.13,0,0,0,1.5.18,3.61,3.61,0,0,0,1.94-.44,1.44,1.44,0,0,0,.68-1.29,1.39,1.39,0,0,0-.26-.86,2.21,2.21,0,0,0-.73-.6,6.36,6.36,0,0,0-1.16-.46q-.68-.21-1.56-.44a16,16,0,0,1-1.76-.56,4.4,4.4,0,0,1-1.25-.71,2.81,2.81,0,0,1-.75-1,3.26,3.26,0,0,1-.26-1.36,3.92,3.92,0,0,1,.38-1.76,3.76,3.76,0,0,1,1-1.29,4.52,4.52,0,0,1,1.55-.79,6.78,6.78,0,0,1,1.94-.27,7.11,7.11,0,0,1,2.53.44,8.41,8.41,0,0,1,2,1.08Z"/><path class="a" d="M163.95,14.19a3,3,0,0,0-.55-.45,5.57,5.57,0,0,0-.85-.45,6.16,6.16,0,0,0-1.06-.34,5.28,5.28,0,0,0-1.19-.13,3.24,3.24,0,0,0-2,.49,1.64,1.64,0,0,0-.64,1.37,1.48,1.48,0,0,0,.2.81,1.71,1.71,0,0,0,.62.55,4.78,4.78,0,0,0,1,.42l1.46.39a16.87,16.87,0,0,1,1.85.55,5.28,5.28,0,0,1,1.4.74,3,3,0,0,1,.88,1.07,3.48,3.48,0,0,1,.31,1.55,3.75,3.75,0,0,1-.39,1.77A3.32,3.32,0,0,1,164,23.74a4.72,4.72,0,0,1-1.57.68,8.12,8.12,0,0,1-1.92.22,9.56,9.56,0,0,1-3-.46,8.51,8.51,0,0,1-2.59-1.36l1-1.82a4.55,4.55,0,0,0,.71.55,6.51,6.51,0,0,0,1.08.56,9.44,9.44,0,0,0,1.34.44,6.13,6.13,0,0,0,1.5.18,3.61,3.61,0,0,0,1.94-.44,1.44,1.44,0,0,0,.68-1.29,1.39,1.39,0,0,0-.26-.86,2.21,2.21,0,0,0-.73-.6,6.36,6.36,0,0,0-1.16-.46q-.68-.21-1.56-.44a16,16,0,0,1-1.76-.56,4.4,4.4,0,0,1-1.25-.71,2.81,2.81,0,0,1-.75-1,3.26,3.26,0,0,1-.26-1.36,3.92,3.92,0,0,1,.38-1.76,3.76,3.76,0,0,1,1-1.29,4.52,4.52,0,0,1,1.55-.79,6.78,6.78,0,0,1,1.94-.27,7.11,7.11,0,0,1,2.53.44,8.41,8.41,0,0,1,2,1.08Z"/><path class="a" d="M172.27,24.51V11h4.79a7.14,7.14,0,0,1,2.86.53A5.89,5.89,0,0,1,182,13a6,6,0,0,1,1.24,2.14,8.05,8.05,0,0,1,.42,2.61,7.89,7.89,0,0,1-.47,2.78,6,6,0,0,1-1.32,2.13A5.86,5.86,0,0,1,179.78,24a7.3,7.3,0,0,1-2.72.48Zm9.2-6.76a6.22,6.22,0,0,0-.29-2,4.28,4.28,0,0,0-.87-1.53,4,4,0,0,0-1.39-1,4.57,4.57,0,0,0-1.86-.36H174.4v9.73h2.66a4.59,4.59,0,0,0,1.89-.37,3.9,3.9,0,0,0,1.39-1,4.42,4.42,0,0,0,.84-1.55A6.32,6.32,0,0,0,181.47,17.75Z"/><path class="a" d="M189.37,11h1.86l5.32,13.49h-2.24l-1.42-3.67h-5.21l-1.41,3.67H184Zm3.1,8.25-2.17-5.79-2.24,5.79Z"/><path class="a" d="M206.79,12.9h-4.48V24.51h-2.15V12.9h-4.5V11h11.13Z"/><path class="a" d="M211.24,11h1.86l5.32,13.49h-2.24l-1.42-3.67h-5.21l-1.41,3.67h-2.26Zm3.1,8.25-2.17-5.79-2.24,5.79Z"/><path class="a" d="M39.33,31.51a2.21,2.21,0,0,0-.86-.61,3.16,3.16,0,0,0-1.1-.17,2.53,2.53,0,0,0-1.64.43,1.43,1.43,0,0,0-.51,1.15,1.32,1.32,0,0,0,.13.61,1.08,1.08,0,0,0,.38.41,2.38,2.38,0,0,0,.67.29q.41.12,1,.24t1.05.26a3.08,3.08,0,0,1,.8.36,1.53,1.53,0,0,1,.51.54,1.59,1.59,0,0,1,.18.79,1.71,1.71,0,0,1-.17.79,1.55,1.55,0,0,1-.5.57,2.37,2.37,0,0,1-.8.34,4.29,4.29,0,0,1-1,.12,4.19,4.19,0,0,1-1.53-.26,3.86,3.86,0,0,1-1.26-.82l.21-.25A3.36,3.36,0,0,0,36,37a3.83,3.83,0,0,0,1.45.26A2.92,2.92,0,0,0,39,36.94a1.23,1.23,0,0,0,.57-1.12,1.37,1.37,0,0,0-.14-.64,1.22,1.22,0,0,0-.43-.45,2.91,2.91,0,0,0-.72-.32,10.45,10.45,0,0,0-1-.26q-.58-.12-1-.25a2.76,2.76,0,0,1-.75-.33,1.34,1.34,0,0,1-.46-.49,1.54,1.54,0,0,1-.15-.73,1.87,1.87,0,0,1,.18-.83,1.69,1.69,0,0,1,.51-.61,2.32,2.32,0,0,1,.78-.37,3.73,3.73,0,0,1,1-.13,3.37,3.37,0,0,1,1.21.2,2.66,2.66,0,0,1,1,.64Z"/><path class="a" d="M46.58,30.78H43.92v6.78h-.35V30.78H40.91v-.32h5.67Z"/><path class="a" d="M49.78,30.46h.3l3,7.1h-.37l-1.05-2.45H48.15l-1,2.45h-.38Zm1.82,4.35L49.93,30.9l-1.68,3.91Z"/><path class="a" d="M55.12,31.12v6.44h-.35v-7.1H55L60.25,37V30.46h.35v7.1h-.34Z"/><path class="a" d="M63,37.56v-7.1h2.32a3.59,3.59,0,0,1,1.47.28,2.94,2.94,0,0,1,1,.76,3.21,3.21,0,0,1,.63,1.13A4.41,4.41,0,0,1,68.69,34a4.31,4.31,0,0,1-.23,1.46,3.2,3.2,0,0,1-.67,1.12,3,3,0,0,1-1.06.72,3.63,3.63,0,0,1-1.39.25ZM68.34,34a4.09,4.09,0,0,0-.19-1.29,2.85,2.85,0,0,0-.58-1,2.66,2.66,0,0,0-.94-.67,3.22,3.22,0,0,0-1.28-.24h-2v6.46h2a3.21,3.21,0,0,0,1.3-.25,2.62,2.62,0,0,0,.94-.68,2.86,2.86,0,0,0,.57-1A4.19,4.19,0,0,0,68.34,34Z"/><path class="a" d="M72.65,30.46h.3L76,37.56h-.37l-1-2.45H71l-1,2.45h-.38Zm1.82,4.35L72.8,30.9l-1.68,3.91Z"/><path class="a" d="M77.64,37.56v-7.1h2.92a1.79,1.79,0,0,1,.82.19,2.15,2.15,0,0,1,.64.5,2.25,2.25,0,0,1,.42.7,2.17,2.17,0,0,1,.15.79,2.42,2.42,0,0,1-.12.78,2.18,2.18,0,0,1-.36.66,2,2,0,0,1-.55.48,1.71,1.71,0,0,1-.71.23l1.78,2.78h-.4l-1.76-2.74H78v2.74ZM78,34.5h2.63a1.44,1.44,0,0,0,.67-.16,1.62,1.62,0,0,0,.51-.42,2,2,0,0,0,.33-.6,2.15,2.15,0,0,0,.12-.69,1.83,1.83,0,0,0-.14-.7,2,2,0,0,0-.36-.59,1.82,1.82,0,0,0-.54-.41,1.46,1.46,0,0,0-.66-.16H78Z"/><path class="a" d="M84.59,37.56v-7.1h2.32a3.59,3.59,0,0,1,1.47.28,2.94,2.94,0,0,1,1,.76A3.21,3.21,0,0,1,90,32.62,4.42,4.42,0,0,1,90.26,34,4.3,4.3,0,0,1,90,35.46a3.2,3.2,0,0,1-.67,1.12,3,3,0,0,1-1.05.72,3.62,3.62,0,0,1-1.39.25ZM89.91,34a4.09,4.09,0,0,0-.2-1.29,2.85,2.85,0,0,0-.58-1,2.66,2.66,0,0,0-.95-.67,3.22,3.22,0,0,0-1.28-.24h-2v6.46h2a3.21,3.21,0,0,0,1.3-.25,2.62,2.62,0,0,0,.94-.68,2.86,2.86,0,0,0,.57-1A4.19,4.19,0,0,0,89.91,34Z"/><path class="a" d="M96.33,31.51a2.2,2.2,0,0,0-.86-.61,3.16,3.16,0,0,0-1.1-.17,2.53,2.53,0,0,0-1.64.43,1.43,1.43,0,0,0-.51,1.15,1.33,1.33,0,0,0,.13.61,1.09,1.09,0,0,0,.39.41,2.37,2.37,0,0,0,.67.29q.41.12,1,.24t1,.26a3.08,3.08,0,0,1,.8.36,1.53,1.53,0,0,1,.51.54,1.59,1.59,0,0,1,.18.79,1.71,1.71,0,0,1-.17.79,1.56,1.56,0,0,1-.5.57,2.37,2.37,0,0,1-.79.34,4.29,4.29,0,0,1-1,.12,4.19,4.19,0,0,1-1.53-.26,3.87,3.87,0,0,1-1.26-.82l.21-.25A3.35,3.35,0,0,0,93,37a3.83,3.83,0,0,0,1.45.26A2.92,2.92,0,0,0,96,36.94a1.23,1.23,0,0,0,.58-1.12,1.36,1.36,0,0,0-.14-.64,1.21,1.21,0,0,0-.42-.45,2.9,2.9,0,0,0-.72-.32,10.45,10.45,0,0,0-1-.26q-.58-.12-1-.25a2.75,2.75,0,0,1-.75-.33,1.32,1.32,0,0,1-.46-.49,1.54,1.54,0,0,1-.16-.73,1.86,1.86,0,0,1,.18-.83,1.69,1.69,0,0,1,.5-.61,2.33,2.33,0,0,1,.79-.37,3.73,3.73,0,0,1,1-.13,3.37,3.37,0,0,1,1.21.2,2.65,2.65,0,0,1,.95.64Z"/><path class="a" d="M103.78,30.46h.3l3.05,7.1h-.37l-1-2.45h-3.56l-1,2.45h-.38Zm1.82,4.35-1.67-3.91-1.68,3.91Z"/><path class="a" d="M109.12,31.12v6.44h-.35v-7.1H109L114.25,37V30.46h.35v7.1h-.34Z"/><path class="a" d="M117,37.56v-7.1h2.32a3.59,3.59,0,0,1,1.47.28,2.94,2.94,0,0,1,1,.76,3.21,3.21,0,0,1,.63,1.13,4.42,4.42,0,0,1,.21,1.38,4.3,4.3,0,0,1-.24,1.46,3.2,3.2,0,0,1-.67,1.12,3,3,0,0,1-1.05.72,3.62,3.62,0,0,1-1.39.25ZM122.34,34a4.09,4.09,0,0,0-.2-1.29,2.85,2.85,0,0,0-.58-1,2.66,2.66,0,0,0-.95-.67,3.22,3.22,0,0,0-1.28-.24h-2v6.46h2a3.21,3.21,0,0,0,1.3-.25,2.62,2.62,0,0,0,.94-.68,2.86,2.86,0,0,0,.57-1A4.19,4.19,0,0,0,122.34,34Z"/><path class="a" d="M132.34,30.78h-2.66v6.78h-.35V30.78h-2.66v-.32h5.67Z"/><path class="a" d="M136.47,37.61a3,3,0,0,1-1.35-.31,3.49,3.49,0,0,1-1-.81,3.62,3.62,0,0,1-.68-1.15,3.81,3.81,0,0,1-.24-1.33,3.69,3.69,0,0,1,.25-1.36,3.79,3.79,0,0,1,.7-1.15,3.37,3.37,0,0,1,1-.8,3,3,0,0,1,1.32-.29,2.9,2.9,0,0,1,1.35.32,3.43,3.43,0,0,1,1,.83,3.79,3.79,0,0,1,.67,1.15,3.76,3.76,0,0,1-.71,3.82,3.4,3.4,0,0,1-1,.79A2.93,2.93,0,0,1,136.47,37.61Zm-3-3.6a3.47,3.47,0,0,0,.22,1.23,3.38,3.38,0,0,0,.61,1,3,3,0,0,0,.94.73,2.66,2.66,0,0,0,1.2.27,2.58,2.58,0,0,0,1.21-.29,3.08,3.08,0,0,0,.93-.74,3.34,3.34,0,0,0,.6-1.05,3.53,3.53,0,0,0,.21-1.19,3.42,3.42,0,0,0-.23-1.23,3.45,3.45,0,0,0-.62-1,3,3,0,0,0-.94-.72,2.71,2.71,0,0,0-2.39,0,3.09,3.09,0,0,0-.94.75A3.52,3.52,0,0,0,133.5,34Z"/><path class="a" d="M144.52,37.61a3,3,0,0,1-1.35-.31,3.49,3.49,0,0,1-1-.81,3.62,3.62,0,0,1-.68-1.15A3.81,3.81,0,0,1,141.2,34a3.69,3.69,0,0,1,.25-1.36,3.79,3.79,0,0,1,.7-1.15,3.37,3.37,0,0,1,1-.8,3,3,0,0,1,1.32-.29,2.9,2.9,0,0,1,1.35.32,3.43,3.43,0,0,1,1,.83,3.79,3.79,0,0,1,.67,1.15,3.76,3.76,0,0,1-.71,3.82,3.4,3.4,0,0,1-1,.79A2.93,2.93,0,0,1,144.52,37.61Zm-3-3.6a3.47,3.47,0,0,0,.22,1.23,3.38,3.38,0,0,0,.61,1,3,3,0,0,0,.94.73,2.66,2.66,0,0,0,1.2.27,2.58,2.58,0,0,0,1.21-.29,3.08,3.08,0,0,0,.93-.74,3.34,3.34,0,0,0,.6-1.05,3.53,3.53,0,0,0,.21-1.19,3.42,3.42,0,0,0-.23-1.23,3.45,3.45,0,0,0-.62-1,3,3,0,0,0-.94-.72,2.71,2.71,0,0,0-2.39,0,3.09,3.09,0,0,0-.94.75,3.52,3.52,0,0,0-.82,2.24Z"/><path class="a" d="M149.75,37.56v-7.1h.35v6.78h4.35v.32Z"/><path class="a" d="M156,37.56v-7.1h.35v7.1Z"/><path class="a" d="M159.17,31.12v6.44h-.35v-7.1h.26L164.3,37V30.46h.35v7.1h-.34Z"/><path class="a" d="M172.39,36.4a3.25,3.25,0,0,1-2.48,1.21,2.91,2.91,0,0,1-1.34-.31,3.46,3.46,0,0,1-1.05-.83,3.92,3.92,0,0,1-.69-1.16,3.58,3.58,0,0,1-.25-1.3,3.87,3.87,0,0,1,.24-1.35,3.68,3.68,0,0,1,.67-1.15,3.34,3.34,0,0,1,1-.8,2.85,2.85,0,0,1,1.3-.3,3.77,3.77,0,0,1,1,.12,2.83,2.83,0,0,1,.76.32,2.38,2.38,0,0,1,.57.49,3.14,3.14,0,0,1,.41.63l-.29.15a2.41,2.41,0,0,0-1-1,3.06,3.06,0,0,0-1.42-.32,2.53,2.53,0,0,0-1.21.29,3,3,0,0,0-.91.75,3.37,3.37,0,0,0-.58,1,3.68,3.68,0,0,0-.2,1.2,3.33,3.33,0,0,0,.24,1.24,3.46,3.46,0,0,0,.64,1,3.15,3.15,0,0,0,1,.72,2.65,2.65,0,0,0,1.18.27A2.75,2.75,0,0,0,171.2,37a4,4,0,0,0,1.19-1V34.45h-1.64v-.3h2v3.41h-.32Z"/><polygon class="b" points="25.2 8.18 25.2 0 0 0 0 25.45 1.85 23.6 2.52 22.93 2.52 22.93 2.52 30.59 2.52 30.6 10.14 38.22 10.64 38.22 10.64 22.92 25.2 22.92 25.2 14.8 10.65 14.8 8.8 16.65 8.12 17.33 8.12 17.33 8.13 17.31 8.12 17.31 8.12 8.18 25.2 8.18"/></svg>
